<?xml version="1.0" encoding="iso-8859-1"?>
<!-- Generator: Adobe Illustrator 19.0.0, SVG Export Plug-In . SVG Version: 6.00 Build 0)  -->
<svg version="1.1" id="Layer_1" xmlns="http://www.w3.org/2000/svg" xmlns:xlink="http://www.w3.org/1999/xlink" x="0px" y="0px"
	 viewBox="0 0 512 512" style="enable-background:new 0 0 512 512;" xml:space="preserve">
<g>
	<g>
		<path d="M508.875,493.792l-82.783-82.783c0.103-1.918,0.574-3.732,0.574-5.676V128c0-23.531-19.135-42.667-42.667-42.667
			c-7.76,0-15.052,2.083-21.333,5.729V64c0-23.531-19.135-42.667-42.667-42.667c-8.781,0-16.938,2.667-23.729,7.219
			C290.427,11.948,274.583,0,256,0s-34.427,11.948-40.271,28.552C208.938,24,200.781,21.333,192,21.333
			c-23.531,0-42.667,19.135-42.667,42.667v70.25L18.208,3.125c-4.167-4.167-10.917-4.167-15.083,0s-4.167,10.917,0,15.083
			l146.208,146.208v163.729c0,5.375-3.542,8.135-5.063,9.073c-1.531,0.948-5.604,2.875-10.375,0.469l-68.5-34.25
			c-6.24-3.125-13.229-4.771-20.208-4.771C20.271,298.667,0,318.938,0,343.854V352c0,2.958,1.229,5.781,3.385,7.802L126.5,474.708
			C152.271,498.75,185.875,512,221.115,512H320c47.88,0,88.02-31.927,101.464-75.453l72.328,72.328
			c2.083,2.083,4.813,3.125,7.542,3.125c2.729,0,5.458-1.042,7.542-3.125C513.042,504.708,513.042,497.958,508.875,493.792z
			 M170.667,64c0-11.76,9.573-21.333,21.333-21.333S213.333,52.24,213.333,64v134.25l-42.667-42.667V64z M320,490.667h-98.885
			c-29.813,0-58.25-11.208-80.052-31.563L21.333,347.365v-3.51c0-13.156,10.698-23.854,23.854-23.854
			c3.677,0,7.375,0.875,10.667,2.521l68.5,34.25c9.969,5,21.635,4.469,31.135-1.396c9.5-5.875,15.177-16.052,15.177-27.229V185.75
			l233.281,233.281C397.34,459.555,362.362,490.667,320,490.667z M405.333,390.25L227.676,212.592
			c4.064-1.505,6.991-5.335,6.991-9.926v-160c0-11.76,9.573-21.333,21.333-21.333s21.333,9.573,21.333,21.333v160
			c0,5.896,4.771,10.667,10.667,10.667s10.667-4.771,10.667-10.667V64c0-11.76,9.573-21.333,21.333-21.333S341.333,52.24,341.333,64
			v170.667c0,4.042,2.323,7.75,5.938,9.563c0.01,0,0.021,0.01,0.042,0.021c0.021,0.01,0.042,0.021,0.063,0.031
			c0.052,0.021,0.104,0.042,0.146,0.073c0.031-0.01,0.031,0,0.042,0.01l0.01,0.01c0.01,0,0.021,0.01,0.021,0.01
			c0.021,0,0.021,0.021,0.042,0.01c-0.021,0.021,0.031,0.021,0.031,0.021l0.031,0.01c0,0,0.01,0.021,0.042,0.021
			c0.021,0.042,0.021,0.031,0.042,0.021c5.135,2.26,11.24,0.083,13.802-5.01c0.917-1.844,1.26-3.823,1.083-5.729V128
			c0-11.76,9.573-21.333,21.333-21.333c11.76,0,21.333,9.573,21.333,21.333V390.25z"/>
	</g>
</g>
<g>
</g>
<g>
</g>
<g>
</g>
<g>
</g>
<g>
</g>
<g>
</g>
<g>
</g>
<g>
</g>
<g>
</g>
<g>
</g>
<g>
</g>
<g>
</g>
<g>
</g>
<g>
</g>
<g>
</g>
</svg>
